<svg class="icon" viewBox="0 0 1024 1024" xmlns="http://www.w3.org/2000/svg" width="88" height="88"><defs><style/></defs><path d="M204.8 454.4c0-9.6 0 0 0 0m729.6 12.8v-9.6 9.6m0-12.8c0-73.6-48-195.2-153.6-208-105.6-16-153.6 57.6-153.6 57.6C592 345.6 624 492.8 704 496c28.8 0 54.4 9.6 70.4 22.4 28.8 22.4 41.6 51.2 44.8 51.2 6.4 6.4 6.4 19.2 3.2 35.2-3.2 12.8-9.6 28.8-22.4 41.6-9.6 12.8 3.2 25.6 0 38.4-3.2 19.2-19.2 38.4-19.2 38.4 12.8 16 25.6 0 38.4 0 32 0 38.4-38.4 38.4-38.4 9.6-9.6 32-6.4 38.4-19.2 3.2-9.6-3.2-22.4 0-32 3.2-22.4 22.4-32 28.8-54.4 9.6-41.6 9.6-80 12.8-102.4-3.2-12.8-3.2-22.4-3.2-22.4M512 92.8c-44.8 3.2-38.4 57.6-38.4 57.6 22.4 9.6 38.4 0 38.4 0 9.6-25.6 38.4-19.2 38.4-19.2 3.2-6.4 6.4-41.6-38.4-38.4M185.6 320c19.2-6.4 38.4 19.2 38.4 19.2 32 16 38.4-19.2 38.4-19.2 22.4-60.8 76.8-96 76.8-96h57.6l38.4-38.4c16-54.4-38.4-38.4-38.4-38.4-25.6 19.2-57.6 19.2-57.6 19.2 9.6-25.6 76.8-35.2 76.8-35.2 6.4-12.8-19.2-19.2-19.2-19.2C342.4 83.2 131.2 246.4 128 339.2c-3.2 89.6 70.4 112 76.8 115.2V512c0 83.2 19.2 96 19.2 96s38.4 67.2 57.6 96c9.6 134.4 76.8 172.8 76.8 172.8 35.2 3.2 38.4-38.4 38.4-38.4s-16-16-19.2-57.6c-3.2-41.6 38.4-57.6 38.4-57.6C451.2 704 473.6 656 492.8 608c19.2-48-25.6-80-38.4-76.8-12.8 3.2-144-80-153.6-96-9.6-12.8-96 0-96 0V416c-19.2-6.4-19.2-38.4-19.2-38.4-16-19.2 0-57.6 0-57.6M512 988.8C246.4 988.8 32 774.4 32 512S246.4 35.2 512 35.2 992 249.6 992 512 777.6 988.8 512 988.8zm0 0" fill="#04B4F5"/></svg>
